<?xml version="1.0" encoding="utf-8"?>
<?xml-stylesheet type="text/xsl" href="rss1.xsl"?>
<rss version="2.0" xmlns:atom="http://www.w3.org/2005/Atom" xmlns:content="http://purl.org/rss/1.0/modules/content/" xmlns:dc="http://purl.org/dc/elements/1.1/" xmlns:media="http://search.yahoo.com/mrss/">
<channel>
 <title>Getty</title>
 <link>http://www.gettyimg.com/</link>
 <atom:link href="http://www.gettyimg.com/" rel="self" type="application/rss+xml" />

 
                <item>
                <title><![CDATA[【HD Live Performances】HDTV - Céu - Lollapalooza Brazil 2024 - HDTV 1080P DD5.1 H264-chmt]]></title>
                <link><![CDATA[https://sharemania.us/threads/c%C3%A9u-lollapalooza-brazil-2024-hdtv-1080p-dd5-1-h264-chmt.240671/]]></link>
                <description><![CDATA[<article>
<blockquote class="messageText SelectQuoteContainer ugc baseHtml">
<img src="https://i.imgur.com/E1MdG3r.jpeg" class="bbCodeImage LbImage" alt="[​IMG]" data-url="https://i.imgur.com/E1MdG3r.jpeg" style=""> <br>
<div class="ToggleTriggerAnchor bbCodeSpoilerContainer">
<button type="button" class="button bbCodeSpoilerButton ToggleTrigger Tooltip JsOnly" data-target="> .SpoilerTarget"><span>Spoiler: <span class="SpoilerTitle">MediaInfo</span></span></button>
<div class="SpoilerTarget bbCodeSpoilerText">General<br>
ID : 55 (0x37)<br>
Complete name : F:\PVR\BIS HD-Lollapalooza 2024_ Lollapalooza 2024 - Flashes Ao Vivo - Ao Vivo Ep_ 57(20240324_142844)\Lollapalooza.Brazil.2024.Ceu.HDTV.1080P.DD5.1.H264-chmt.TS<br>
Format : MPEG-TS<br>
File size : 2.51 GiB<br>
Duration : 58 min 56 s<br>
Overall bit rate mode : Variable<br>
Overall bit rate : 6 092 kb/s<br>
<br>
Video<br>
ID : 5603 (0x15E3)<br>
Menu ID : 544 (0x220)<br>
Format : AVC<br>
Format/Info : Advanced Video Codec<br>
Codec ID : 27<br>
Encryption : Encrypted<br>
<br>
Audio<br>
ID : 5601 (0x15E1)<br>
Menu ID : 544 (0x220)<br>
Format : AC-3<br>
Format/Info : Audio Coding 3<br>
Codec ID : 6<br>
Channel(s) : 2 channels<br>
Compression mode : Lossy<br>
Language : Portuguese<br>
Encryption : Encrypted<br>
<br>
Menu<br>
ID : 5600 (0x15E0)<br>
Menu ID : 544 (0x220)<br>
Duration : 58 min 56 s<br>
List : 5603 (0x15E3) (AVC) / 5601 (0x15E1) (AC-3, Portuguese)<br>
Language : / Portuguese</div>
</div><br>
<div class="bbCodeBlock bbCodeVfcHH HiddenContent">
<div class="attribution type">Hidden Content:</div>
<blockquote>You must either reply or click 'Like' to see the hidden information contained here.</blockquote>
</div>
<div class="messageTextEndMarker">&nbsp;</div>
</blockquote>
</article>]]></description>
                <author><![CDATA[chmt]]></author>
                </item>

                
                <item>
                <title><![CDATA[【Requests】[REQ VID] - Coldplay Live BBC Radio Big Weekend 2021]]></title>
                <link><![CDATA[https://sharemania.us/threads/coldplay-live-bbc-radio-big-weekend-2021.240670/]]></link>
                <description><![CDATA[<article>
<blockquote class="messageText SelectQuoteContainer ugc baseHtml">
Does anyone have a working link to download this concert?
<div class="messageTextEndMarker">&nbsp;</div>
</blockquote>
</article>]]></description>
                <author><![CDATA[Angello82]]></author>
                </item>

                
                <item>
                <title><![CDATA[【HD Live Performances】WEB-DL - Hungria - Lollapalooza Brazil 2024 2160p WEB-DL DDP5.1 H.265]]></title>
                <link><![CDATA[https://sharemania.us/threads/hungria-lollapalooza-brazil-2024-2160p-web-dl-ddp5-1-h-265.240672/]]></link>
                <description><![CDATA[<article>
<blockquote class="messageText SelectQuoteContainer ugc baseHtml">
<div style="text-align: center"><br>
<a href="https://ibb.co/0qt9z7t" target="_blank" class="externalLink" rel="nofollow"><img src="https://i.ibb.co/zsJ2tMJ/lollapalooza-1-76411.png" class="bbCodeImage LbImage" alt="[​IMG]" data-url="https://i.ibb.co/zsJ2tMJ/lollapalooza-1-76411.png"></a><br>
<a href="https://ibb.co/W5rQH2W" target="_blank" class="externalLink" rel="nofollow"><img src="https://i.ibb.co/W5rQH2W/Lollapalooza-Brasil-2024-Hungria-2160p-GLBO-WEB-DL-DDP5-1-Atmos-H-265-JL92-mkv-20240324-154301-708.png" class="bbCodeImage LbImage" alt="[​IMG]" data-url="https://i.ibb.co/W5rQH2W/Lollapalooza-Brasil-2024-Hungria-2160p-GLBO-WEB-DL-DDP5-1-Atmos-H-265-JL92-mkv-20240324-154301-708.png"></a> <a href="https://ibb.co/Sn8QT1q" target="_blank" class="externalLink" rel="nofollow"><img src="https://i.ibb.co/Sn8QT1q/Lollapalooza-Brasil-2024-Hungria-2160p-GLBO-WEB-DL-DDP5-1-Atmos-H-265-JL92-mkv-20240324-154306-547.png" class="bbCodeImage LbImage" alt="[​IMG]" data-url="https://i.ibb.co/Sn8QT1q/Lollapalooza-Brasil-2024-Hungria-2160p-GLBO-WEB-DL-DDP5-1-Atmos-H-265-JL92-mkv-20240324-154306-547.png"></a> <a href="https://ibb.co/N3g9hJF" target="_blank" class="externalLink" rel="nofollow"><img src="https://i.ibb.co/N3g9hJF/Lollapalooza-Brasil-2024-Hungria-2160p-GLBO-WEB-DL-DDP5-1-Atmos-H-265-JL92-mkv-20240324-154309-763.png" class="bbCodeImage LbImage" alt="[​IMG]" data-url="https://i.ibb.co/N3g9hJF/Lollapalooza-Brasil-2024-Hungria-2160p-GLBO-WEB-DL-DDP5-1-Atmos-H-265-JL92-mkv-20240324-154309-763.png"></a><br>
​</div>
<div class="ToggleTriggerAnchor bbCodeSpoilerContainer">
<button type="button" class="button bbCodeSpoilerButton ToggleTrigger Tooltip JsOnly" data-target="> .SpoilerTarget"><span>Spoiler: <span class="SpoilerTitle">MediaInfo</span></span></button>
<div class="SpoilerTarget bbCodeSpoilerText">
<div class="bbCodeBlock bbCodeCode">
<div class="type">Code:</div>
<pre>General
Format                                   : Matroska
Format version                           : Version 4
File size                                : 7.50 GiB
Duration                                 : 58 min 12 s
Overall bit rate                         : 18.5 Mb/s
Frame rate                               : 30.000 FPS
Writing application                      : Lavf58.76.100
Writing library                          : Lavf58.76.100
ErrorDetectionType                       : Per level 1

Video
ID                                       : 1
Format                                   : HEVC
Format/Info                              : High Efficiency Video Coding
Format profile                           : Main 10@L5.1@High
Codec ID                                 : V_MPEGH/ISO/HEVC
Duration                                 : 58 min 12 s
Bit rate                                 : 17.6 Mb/s
Width                                    : 3 840 pixels
Height                                   : 2 160 pixels
Display aspect ratio                     : 16:9
Frame rate mode                          : Constant
Frame rate                               : 30.000 FPS
Standard                                 : NTSC
Color space                              : YUV
Chroma subsampling                       : 4:2:0
Bit depth                                : 10 bits
Bits/(Pixel*Frame)                       : 0.071
Time code of first frame                 : 17:31:31:08
Stream size                              : 7.17 GiB (96%)
Default                                  : Yes
Forced                                   : No
Color range                              : Limited
Color primaries                          : BT.709
Transfer characteristics                 : BT.709
Matrix coefficients                      : BT.709

Audio
ID                                       : 2
Format                                   : E-AC-3 JOC
Format/Info                              : Enhanced AC-3 with Joint Object Coding
Commercial name                          : Dolby Digital Plus with Dolby Atmos
Codec ID                                 : A_EAC3
Duration                                 : 58 min 12 s
Bit rate mode                            : Constant
Bit rate                                 : 448 kb/s
Channel(s)                               : 6 channels
Channel layout                           : L R C LFE Ls Rs
Sampling rate                            : 48.0 kHz
Frame rate                               : 31.250 FPS (1536 SPF)
Compression mode                         : Lossy
Delay relative to video                  : 32 ms
Stream size                              : 187 MiB (2%)
Language                                 : English
Service kind                             : Complete Main
Default                                  : Yes
Forced                                   : No
Complexity index                         : 12
Number of dynamic objects                : 0
Bed channel count                        : 12 channels
Bed channel configuration                : L R C LFE Ls Rs Lb Rb Tfl Tfr Tbl Tbr
</pre>
</div></div>
</div>
<div class="bbCodeBlock bbCodeVfcHH HiddenContent">
<div class="attribution type">Hidden Content:</div>
<blockquote>You must reply before you can see the hidden data contained here.</blockquote>
</div>
<div class="messageTextEndMarker">&nbsp;</div>
</blockquote>
</article>]]></description>
                <author><![CDATA[itunesboy]]></author>
                </item>

                </channel></rss>